<svg width="18" height="98" viewBox="0 0 18 98" fill="none" xmlns="http://www.w3.org/2000/svg">
<rect x="0.5" y="17.5" width="17" height="54" rx="0.5" fill="#FFE600" stroke="black"/>
<path d="M9.43301 1.75L15.4952 12.25C15.6876 12.5833 15.4471 13 15.0622 13H2.93782C2.55292 13 2.31236 12.5833 2.50481 12.25L8.56699 1.75C8.75944 1.41667 9.24056 1.41667 9.43301 1.75Z" fill="#FFE600" stroke="black"/>
<path d="M8.52754 95.1086L2.13803 76.6637C2.02551 76.3389 2.26673 76 2.61048 76L15.3895 76C15.7333 76 15.9745 76.3388 15.862 76.6637L9.47246 95.1086C9.31711 95.5571 8.68289 95.5571 8.52754 95.1086Z" fill="#FFE600" stroke="black"/>
<path d="M7 20.4856L11.1752 20.4856L11.1752 22.2149C11.1752 22.665 11.0627 23.0125 10.8377 23.2573C10.6166 23.5021 10.3047 23.6245 9.90194 23.6245C9.49527 23.6245 9.17941 23.5021 8.95437 23.2573C8.73327 23.0125 8.62272 22.665 8.62272 22.2149L8.62272 21.1016L7 21.1016L7 20.4856ZM9.11427 21.1016L9.11427 22.1261C9.11427 22.7262 9.37683 23.0263 9.90194 23.0263C10.4231 23.0263 10.6837 22.7262 10.6837 22.1261L10.6837 21.1016L9.11427 21.1016ZM7 24.1624L9.89009 24.1624L9.89009 24.7428L9.37485 24.7428C9.71835 24.8928 9.90983 25.2047 9.94932 25.6785L9.96116 25.874L9.45184 25.9154L9.41631 25.5542C9.36498 25.0291 9.09453 24.7665 8.60495 24.7665L7 24.7665L7 24.1624ZM6.9467 27.5868C6.9467 27.2946 7.0079 27.0419 7.13029 26.8287C7.25269 26.6155 7.42443 26.4497 7.64553 26.3312C7.87058 26.2167 8.13709 26.1595 8.44505 26.1595C8.75301 26.1595 9.01754 26.2167 9.23864 26.3312C9.46369 26.4497 9.63741 26.6155 9.7598 26.8287C9.8822 27.0419 9.94339 27.2946 9.94339 27.5868C9.94339 27.871 9.8822 28.1198 9.7598 28.333C9.63741 28.5462 9.46369 28.712 9.23864 28.8305C9.01754 28.9489 8.75301 29.0081 8.44505 29.0081C8.13709 29.0081 7.87058 28.9489 7.64553 28.8305C7.42443 28.712 7.25269 28.5462 7.13029 28.333C7.0079 28.1198 6.9467 27.871 6.9467 27.5868ZM7.40864 27.5868C7.40864 27.8316 7.49747 28.029 7.67514 28.179C7.85281 28.329 8.10945 28.4041 8.44505 28.4041C8.78064 28.4041 9.0353 28.329 9.20903 28.179C9.3867 28.029 9.47553 27.8316 9.47553 27.5868C9.47553 27.338 9.3867 27.1386 9.20903 26.9886C9.0353 26.8386 8.78064 26.7636 8.44505 26.7636C8.10945 26.7636 7.85281 26.8386 7.67514 26.9886C7.49747 27.1386 7.40864 27.338 7.40864 27.5868ZM5.93398 29.6799L9.89009 29.6799L9.89009 30.2662L9.39854 30.2662C9.56437 30.3491 9.69663 30.4755 9.79534 30.6452C9.89404 30.815 9.94339 31.0104 9.94339 31.2315C9.94339 31.4882 9.8822 31.7113 9.7598 31.9008C9.63741 32.0942 9.46369 32.2423 9.23864 32.3449C9.01754 32.4515 8.75301 32.5048 8.44505 32.5048C8.13709 32.5048 7.87058 32.4515 7.64553 32.3449C7.42048 32.2423 7.24676 32.0942 7.12437 31.9008C7.00592 31.7113 6.9467 31.4882 6.9467 31.2315C6.9467 31.0183 6.9921 30.8269 7.08291 30.6571C7.17767 30.4913 7.30599 30.3649 7.46786 30.2781L5.93398 30.2781L5.93398 29.6799ZM7.40864 31.0835C7.40864 31.3322 7.49747 31.5296 7.67514 31.6757C7.85281 31.8258 8.10945 31.9008 8.44505 31.9008C8.78064 31.9008 9.0353 31.8258 9.20903 31.6757C9.3867 31.5296 9.47553 31.3322 9.47553 31.0835C9.47553 30.8347 9.3867 30.6354 9.20903 30.4853C9.0353 30.3392 8.78064 30.2662 8.44505 30.2662C8.10945 30.2662 7.85281 30.3392 7.67514 30.4853C7.49747 30.6354 7.40864 30.8347 7.40864 31.0835ZM6.9467 34.5351C6.9467 34.0614 7.07896 33.6882 7.34349 33.4158C7.61197 33.1434 7.97718 33.0072 8.43912 33.0072C8.73524 33.0072 8.99582 33.0664 9.22087 33.1848C9.44987 33.3072 9.62754 33.475 9.75388 33.6882C9.88022 33.9014 9.94339 34.1462 9.94339 34.4226C9.94339 34.8214 9.81508 35.1353 9.55844 35.3643C9.30576 35.5933 8.95634 35.7078 8.51019 35.7078L8.30883 35.7078L8.30883 33.5876C7.7087 33.631 7.40864 33.9488 7.40864 34.5411C7.40864 34.7069 7.4343 34.8688 7.48563 35.0267C7.53696 35.1886 7.62184 35.3406 7.74029 35.4827L7.32573 35.6604C7.20728 35.5301 7.1145 35.3623 7.04738 35.157C6.98026 34.9517 6.9467 34.7444 6.9467 34.5351ZM9.52291 34.4463C9.52291 34.1976 9.44592 34.0002 9.29194 33.8541C9.13796 33.708 8.93265 33.6192 8.67602 33.5876L8.67602 35.2044C8.9445 35.1925 9.15178 35.1214 9.29786 34.9912C9.44789 34.8609 9.52291 34.6792 9.52291 34.4463ZM7 36.3599L9.89009 36.3599L9.89009 36.9402L9.37485 36.9402C9.71835 37.0903 9.90983 37.4022 9.94932 37.876L9.96116 38.0714L9.45184 38.1129L9.41631 37.7516C9.36498 37.2265 9.09453 36.9639 8.60495 36.9639L7 36.9639L7 36.3599ZM6.9467 39.9629C6.9467 39.5997 7.03948 39.3293 7.22505 39.1516C7.41061 38.9739 7.67909 38.8851 8.03048 38.8851L9.42815 38.8851L9.42815 38.3225L9.89009 38.3225L9.89009 38.8851L10.7607 38.8851L10.7607 39.4832L9.89009 39.4832L9.89009 40.3775L9.42815 40.3775L9.42815 39.4832L8.07786 39.4832C7.86861 39.4832 7.71068 39.5267 7.60408 39.6135C7.49747 39.7043 7.44417 39.8504 7.44417 40.0518C7.44417 40.115 7.4501 40.1761 7.46194 40.2354C7.47773 40.2946 7.4955 40.3538 7.51524 40.413L7.06514 40.5078C7.02961 40.4486 7.00197 40.3657 6.98223 40.2591C6.95854 40.1564 6.9467 40.0577 6.9467 39.9629ZM5.93398 41.2307L7.07699 41.746L9.89009 40.5378L9.89009 41.1774L7.69291 42.0658L9.89009 42.966L9.89009 43.5819L5.93398 41.8585L5.93398 41.2307ZM7 45.6324L11.1752 45.6324L11.1752 47.107C11.1752 47.794 10.9956 48.3231 10.6363 48.6942C10.277 49.0693 9.76178 49.2568 9.09058 49.2568C8.41938 49.2568 7.90217 49.0693 7.53893 48.6942C7.17964 48.3231 7 47.794 7 47.107L7 45.6324ZM7.51524 46.2483L7.51524 47.0715C7.51524 48.102 8.04035 48.6172 9.09058 48.6172C10.1369 48.6172 10.66 48.102 10.66 47.0715L10.66 46.2483L7.51524 46.2483ZM6.9467 50.9386C6.9467 50.7373 6.98618 50.5576 7.06514 50.3997C7.14411 50.2418 7.25071 50.1154 7.38495 50.0207C7.51919 49.9299 7.6712 49.8845 7.84097 49.8845C8.05417 49.8845 8.22197 49.9378 8.34437 50.0444C8.46676 50.1549 8.5556 50.3346 8.61087 50.5833C8.66615 50.836 8.69378 51.1755 8.69378 51.6019L8.69378 51.8033L8.84776 51.8033C9.07281 51.8033 9.23469 51.7559 9.33339 51.6612C9.4321 51.5664 9.48145 51.4104 9.48145 51.1933C9.48145 51.0275 9.45579 50.8616 9.40446 50.6958C9.35708 50.53 9.28009 50.3602 9.17349 50.1865L9.59398 50.0029C9.70058 50.1529 9.78546 50.3405 9.84864 50.5655C9.91181 50.7906 9.94339 51.0057 9.94339 51.2111C9.94339 51.6059 9.84864 51.898 9.65912 52.0876C9.47356 52.2771 9.18139 52.3718 8.78262 52.3718L7 52.3718L7 51.8092L7.47971 51.8092C7.31388 51.7381 7.18359 51.6276 7.08883 51.4776C6.99408 51.3275 6.9467 51.1479 6.9467 50.9386ZM7.3731 51.0571C7.3731 51.2703 7.44812 51.4479 7.59815 51.5901C7.74819 51.7322 7.9377 51.8033 8.1667 51.8033L8.3266 51.8033L8.3266 51.6079C8.3266 51.3196 8.31278 51.0926 8.28514 50.9268C8.25751 50.7649 8.21013 50.6484 8.14301 50.5774C8.07984 50.5102 7.991 50.4767 7.8765 50.4767C7.72647 50.4767 7.60408 50.528 7.50932 50.6307C7.41851 50.7333 7.3731 50.8755 7.3731 51.0571ZM7 53.2075L9.89009 53.2075L9.89009 53.7879L9.42223 53.7879C9.58805 53.8748 9.71637 53.9952 9.80718 54.1492C9.89799 54.3032 9.94339 54.4828 9.94339 54.6881C9.94339 55.1303 9.74993 55.4166 9.36301 55.5468C9.54462 55.6377 9.68676 55.7679 9.78941 55.9377C9.89207 56.1075 9.94339 56.301 9.94339 56.5181C9.94339 57.1656 9.55647 57.4894 8.78262 57.4894L7 57.4894L7 56.8912L8.75301 56.8912C8.9978 56.8912 9.17744 56.8478 9.29194 56.7609C9.40644 56.678 9.46368 56.5398 9.46368 56.3464C9.46368 56.1292 9.38669 55.9575 9.23271 55.8311C9.08268 55.7048 8.87737 55.6416 8.61679 55.6416L7 55.6416L7 55.0434L8.75301 55.0434C8.9978 55.0434 9.17744 55.002 9.29194 54.9191C9.40644 54.8362 9.46368 54.698 9.46368 54.5045C9.46368 54.2874 9.38669 54.1156 9.23271 53.9893C9.08268 53.8669 8.87737 53.8057 8.61679 53.8057L7 53.8057L7 53.2075ZM6.9467 59.2495C6.9467 59.0482 6.98618 58.8685 7.06514 58.7106C7.14411 58.5527 7.25071 58.4263 7.38495 58.3316C7.51919 58.2408 7.67119 58.1954 7.84097 58.1954C8.05417 58.1954 8.22197 58.2487 8.34437 58.3553C8.46676 58.4658 8.5556 58.6455 8.61087 58.8942C8.66615 59.1469 8.69378 59.4864 8.69378 59.9128L8.69378 60.1142L8.84776 60.1142C9.07281 60.1142 9.23469 60.0668 9.33339 59.9721C9.4321 59.8773 9.48145 59.7214 9.48145 59.5042C9.48145 59.3384 9.45579 59.1726 9.40446 59.0067C9.35708 58.8409 9.28009 58.6711 9.17349 58.4974L9.59398 58.3138C9.70058 58.4638 9.78546 58.6514 9.84864 58.8764C9.91181 59.1015 9.94339 59.3167 9.94339 59.522C9.94339 59.9168 9.84864 60.209 9.65912 60.3985C9.47355 60.588 9.18139 60.6827 8.78262 60.6827L7 60.6827L7 60.1201L7.47971 60.1201C7.31388 60.0491 7.18359 59.9385 7.08883 59.7885C6.99408 59.6384 6.9467 59.4588 6.9467 59.2495ZM7.3731 59.368C7.3731 59.5812 7.44812 59.7589 7.59815 59.901C7.74819 60.0431 7.9377 60.1142 8.1667 60.1142L8.3266 60.1142L8.3266 59.9188C8.3266 59.6305 8.31278 59.4035 8.28514 59.2377C8.2575 59.0758 8.21013 58.9593 8.14301 58.8883C8.07984 58.8212 7.991 58.7876 7.8765 58.7876C7.72647 58.7876 7.60408 58.8389 7.50932 58.9416C7.41851 59.0442 7.3731 59.1864 7.3731 59.368ZM5.88068 62.8154C5.88068 62.5548 5.91226 62.312 5.97544 62.087C6.03466 61.8619 6.12942 61.6626 6.25971 61.4888L6.68612 61.6724C6.56767 61.8461 6.48081 62.0238 6.42553 62.2054C6.37026 62.387 6.34262 62.5766 6.34262 62.774C6.34262 63.3267 6.619 63.6031 7.17175 63.6031L7.62776 63.6031C7.45404 63.5202 7.31783 63.3899 7.21912 63.2122C7.12042 63.0385 7.07107 62.8431 7.07107 62.6259C7.07107 62.3653 7.13029 62.1383 7.24874 61.9448C7.37113 61.7514 7.53893 61.6014 7.75213 61.4948C7.96928 61.3882 8.22197 61.3349 8.51019 61.3349C8.79446 61.3349 9.0432 61.3882 9.2564 61.4948C9.47355 61.6014 9.64135 61.7514 9.7598 61.9448C9.8822 62.1383 9.94339 62.3653 9.94339 62.6259C9.94339 62.847 9.89404 63.0444 9.79533 63.2181C9.69663 63.3919 9.56042 63.5202 9.38669 63.6031L9.89009 63.6031L9.89009 64.1835L7.24281 64.1835C6.78877 64.1835 6.44922 64.067 6.22417 63.8341C5.99518 63.6011 5.88068 63.2616 5.88068 62.8154ZM7.53893 62.7681C7.53893 63.0207 7.62579 63.2221 7.79951 63.3721C7.97323 63.5222 8.21013 63.5972 8.51019 63.5972C8.81025 63.5972 9.04517 63.5222 9.21495 63.3721C9.38867 63.2221 9.47553 63.0207 9.47553 62.7681C9.47553 62.5154 9.38867 62.314 9.21495 62.164C9.04517 62.0139 8.81025 61.9389 8.51019 61.9389C8.21013 61.9389 7.97323 62.0139 7.79951 62.164C7.62579 62.314 7.53893 62.5154 7.53893 62.7681ZM6.9467 66.3792C6.9467 65.9054 7.07896 65.5323 7.34349 65.2599C7.61197 64.9874 7.97718 64.8512 8.43912 64.8512C8.73524 64.8512 8.99582 64.9105 9.22087 65.0289C9.44987 65.1513 9.62754 65.3191 9.75388 65.5323C9.88022 65.7455 9.94339 65.9903 9.94339 66.2667C9.94339 66.6654 9.81508 66.9793 9.55844 67.2083C9.30576 67.4373 8.95634 67.5518 8.51019 67.5518L8.30883 67.5518L8.30883 65.4316C7.7087 65.475 7.40864 65.7929 7.40864 66.3851C7.40864 66.5509 7.4343 66.7128 7.48563 66.8707C7.53696 67.0326 7.62184 67.1846 7.74029 67.3268L7.32573 67.5044C7.20728 67.3741 7.1145 67.2063 7.04738 67.001C6.98026 66.7957 6.9467 66.5884 6.9467 66.3792ZM9.52291 66.2904C9.52291 66.0416 9.44592 65.8442 9.29194 65.6981C9.13796 65.552 8.93265 65.4632 8.67602 65.4316L8.67602 67.0484C8.94449 67.0366 9.15178 66.9655 9.29786 66.8352C9.44789 66.7049 9.52291 66.5233 9.52291 66.2904Z" fill="black"/>
</svg>
