<svg width="18" height="98" viewBox="0 0 18 98" fill="none" xmlns="http://www.w3.org/2000/svg">
<rect x="0.5" y="17.5" width="17" height="54" rx="0.5" fill="#FFA724" stroke="black"/>
<path d="M8.56699 1.75C8.75944 1.41667 9.24056 1.41667 9.43301 1.75L15.4952 12.25C15.6876 12.5833 15.4471 13 15.0622 13H2.93782C2.55292 13 2.31236 12.5833 2.50481 12.25L8.56699 1.75Z" fill="#FFA724" stroke="black"/>
<path d="M9.47246 95.1086C9.31711 95.5571 8.68289 95.5571 8.52755 95.1086L2.13803 76.6637C2.02551 76.3389 2.26673 76 2.61048 76L15.3895 76C15.7333 76 15.9745 76.3389 15.862 76.6637L9.47246 95.1086Z" fill="#FFA724" stroke="black"/>
<path d="M7 38.755L11.27 38.755L11.27 37.0276L11.8711 37.0276L11.8711 41.194L11.27 41.194L11.27 39.4666L7 39.4666L7 38.755ZM7 41.7145L11.8711 41.7145L11.8711 42.4123L9.84666 42.4123C10.0401 42.5275 10.1852 42.6818 10.282 42.8752C10.3833 43.0733 10.434 43.2944 10.434 43.5385C10.434 44.3354 9.98255 44.7339 9.07972 44.7339L7 44.7339L7 44.036L9.03827 44.036C9.32846 44.036 9.54035 43.9784 9.67393 43.8633C9.80751 43.7527 9.8743 43.5777 9.8743 43.3382C9.8743 43.0572 9.78448 42.8315 9.60483 42.661C9.4298 42.4952 9.19718 42.4123 8.90699 42.4123L7 42.4123L7 41.7145ZM6.93782 47.2777C6.93782 46.7249 7.09212 46.2897 7.40074 45.9718C7.71397 45.654 8.14005 45.4951 8.67898 45.4951C9.02445 45.4951 9.32846 45.5642 9.59102 45.7024C9.85818 45.8452 10.0655 46.0409 10.2129 46.2897C10.3603 46.5384 10.434 46.824 10.434 47.1464C10.434 47.6116 10.2843 47.9778 9.98485 48.245C9.69005 48.5122 9.2824 48.6458 8.76189 48.6458L8.52697 48.6458L8.52697 46.1722C7.82682 46.2229 7.47675 46.5937 7.47675 47.2846C7.47675 47.4781 7.50669 47.6669 7.56657 47.8512C7.62645 48.04 7.72548 48.2174 7.86367 48.3832L7.38002 48.5905C7.24183 48.4385 7.13358 48.2427 7.05527 48.0032C6.97697 47.7637 6.93782 47.5218 6.93782 47.2777ZM9.94339 47.1741C9.94339 46.8839 9.85357 46.6535 9.67393 46.4831C9.49428 46.3127 9.25476 46.209 8.95535 46.1722L8.95535 48.0585C9.26858 48.0446 9.51041 47.9617 9.68084 47.8097C9.85587 47.6577 9.94339 47.4458 9.94339 47.1741ZM7 49.6002L9.83284 49.6002L9.83284 48.9438L10.3718 48.9438L10.3718 49.6002L10.434 49.6002C10.8992 49.6002 11.2493 49.7176 11.4842 49.9525C11.7191 50.1921 11.8504 50.5583 11.878 51.0511L11.8987 51.3551L11.3736 51.4035L11.3529 51.0857C11.3345 50.8047 11.2585 50.602 11.1249 50.4777C10.9913 50.3579 10.7932 50.298 10.5307 50.298L10.3718 50.298L10.3718 51.2446L9.83284 51.2446L9.83284 50.298L7 50.298L7 49.6002ZM6.93781 53.0501C6.93781 52.6263 7.04606 52.3108 7.26256 52.1035C7.47905 51.8962 7.79227 51.7926 8.20223 51.7926L9.83284 51.7926L9.83284 51.1362L10.3718 51.1362L10.3718 51.7926L11.3875 51.7926L11.3875 52.4904L10.3718 52.4904L10.3718 53.5338L9.83284 53.5338L9.83284 52.4904L8.25751 52.4904C8.01337 52.4904 7.82912 52.5411 7.70476 52.6424C7.58039 52.7484 7.5182 52.9188 7.5182 53.1537C7.5182 53.2274 7.52511 53.2988 7.53893 53.3679C7.55736 53.437 7.57808 53.5061 7.60111 53.5752L7.076 53.6858C7.03455 53.6167 7.0023 53.5199 6.97927 53.3956C6.95163 53.2758 6.93781 53.1607 6.93781 53.0501Z" fill="black"/>
</svg>
