<svg width="18" height="98" viewBox="0 0 18 98" fill="none" xmlns="http://www.w3.org/2000/svg">
<rect x="0.5" y="17.5" width="17" height="54" rx="0.5" fill="#FF0000" stroke="black"/>
<path d="M8.56699 1.75C8.75944 1.41667 9.24056 1.41667 9.43301 1.75L15.4952 12.25C15.6876 12.5833 15.4471 13 15.0622 13H2.93782C2.55292 13 2.31236 12.5833 2.50481 12.25L8.56699 1.75Z" fill="#FF0000" stroke="black"/>
<path d="M9.47246 95.1086C9.31711 95.5571 8.68289 95.5571 8.52755 95.1086L2.13803 76.6637C2.02551 76.3389 2.26673 76 2.61048 76L15.3895 76C15.7333 76 15.9745 76.3389 15.862 76.6637L9.47246 95.1086Z" fill="#FF0000" stroke="black"/>
<path d="M7 26.1074L11.8711 23.9585L11.8711 24.7255L7.90513 26.4321L11.8711 28.1387L11.8711 28.8711L7 26.7223L7 26.1074ZM6.93782 30.3749C6.93782 30.0341 7.00921 29.7393 7.15201 29.4905C7.2948 29.2418 7.49517 29.0483 7.75312 28.9101C8.01568 28.7766 8.3266 28.7098 8.68589 28.7098C9.04518 28.7098 9.35379 28.7766 9.61174 28.9101C9.8743 29.0483 10.077 29.2418 10.2198 29.4905C10.3626 29.7393 10.434 30.0341 10.434 30.3749C10.434 30.7066 10.3626 30.9968 10.2198 31.2455C10.077 31.4942 9.8743 31.6877 9.61174 31.8259C9.35379 31.9641 9.04518 32.0332 8.68589 32.0332C8.3266 32.0332 8.01568 31.9641 7.75312 31.8259C7.49517 31.6877 7.2948 31.4942 7.15201 31.2455C7.00921 30.9968 6.93782 30.7066 6.93782 30.3749ZM7.47675 30.3749C7.47675 30.6605 7.58039 30.8908 7.78767 31.0659C7.99495 31.2409 8.29436 31.3284 8.68589 31.3284C9.07742 31.3284 9.37452 31.2409 9.5772 31.0659C9.78448 30.8908 9.88812 30.6605 9.88812 30.3749C9.88812 30.0847 9.78448 29.8521 9.5772 29.6771C9.37452 29.502 9.07742 29.4145 8.68589 29.4145C8.29436 29.4145 7.99495 29.502 7.78767 29.6771C7.58039 29.8521 7.47675 30.0847 7.47675 30.3749ZM11.1525 32.7547L11.878 32.7547L11.878 33.57L11.1525 33.57L11.1525 32.7547ZM7 32.8169L10.3718 32.8169L10.3718 33.5148L7 33.5148L7 32.8169ZM6.93782 35.5956C6.93782 35.2271 7.04146 34.9507 7.24874 34.7665C7.45602 34.5868 7.76003 34.497 8.16077 34.497L11.8711 34.497L11.8711 35.1949L8.20223 35.1949C7.74621 35.1949 7.5182 35.3814 7.5182 35.7545C7.5182 35.8098 7.52051 35.8605 7.52511 35.9065C7.52972 35.9572 7.53893 36.0079 7.55275 36.0585L6.99309 36.0447C6.95624 35.8881 6.93782 35.7384 6.93782 35.5956ZM6.93781 38.1575C6.93782 37.6047 7.09212 37.1694 7.40074 36.8516C7.71397 36.5338 8.14005 36.3749 8.67898 36.3749C9.02445 36.3749 9.32846 36.4439 9.59102 36.5821C9.85818 36.7249 10.0655 36.9207 10.2129 37.1694C10.3603 37.4182 10.434 37.7038 10.434 38.0262C10.434 38.4914 10.2843 38.8576 9.98485 39.1248C9.69005 39.3919 9.2824 39.5255 8.76189 39.5255L8.52697 39.5255L8.52697 37.052C7.82682 37.1026 7.47675 37.4734 7.47675 38.1644C7.47675 38.3578 7.50669 38.5467 7.56657 38.731C7.62645 38.9198 7.72548 39.0971 7.86367 39.263L7.38002 39.4703C7.24183 39.3182 7.13358 39.1225 7.05527 38.883C6.97697 38.6434 6.93781 38.4016 6.93781 38.1575ZM9.94339 38.0538C9.94339 37.7636 9.85357 37.5333 9.67393 37.3629C9.49428 37.1925 9.25476 37.0888 8.95535 37.052L8.95535 38.9382C9.26858 38.9244 9.51041 38.8415 9.68084 38.6895C9.85587 38.5375 9.94339 38.3256 9.94339 38.0538ZM7 40.2863L10.3718 40.2863L10.3718 40.9634L9.81212 40.9634C10.0148 41.0786 10.1691 41.2352 10.275 41.4333C10.381 41.6359 10.434 41.8617 10.434 42.1104C10.434 42.9073 9.98255 43.3057 9.07972 43.3057L7 43.3057L7 42.6079L9.03827 42.6079C9.32846 42.6079 9.54035 42.5503 9.67393 42.4351C9.80751 42.3246 9.8743 42.1495 9.8743 41.91C9.8743 41.629 9.78448 41.4033 9.60483 41.2329C9.4298 41.0671 9.19718 40.9842 8.90699 40.9842L7 40.9842L7 40.2863ZM6.93781 45.7045C6.93781 45.2807 7.04606 44.9652 7.26256 44.7579C7.47905 44.5506 7.79227 44.4469 8.20223 44.4469L9.83284 44.4469L9.83284 43.7906L10.3718 43.7906L10.3718 44.4469L11.3875 44.4469L11.3875 45.1448L10.3718 45.1448L10.3718 46.1881L9.83284 46.1881L9.83284 45.1448L8.25751 45.1448C8.01337 45.1448 7.82912 45.1955 7.70476 45.2968C7.58039 45.4027 7.5182 45.5732 7.5182 45.8081C7.5182 45.8818 7.52511 45.9532 7.53893 46.0223C7.55736 46.0914 7.57808 46.1605 7.60111 46.2296L7.076 46.3401C7.03455 46.271 7.0023 46.1743 6.97927 46.0499C6.95163 45.9302 6.93781 45.815 6.93781 45.7045ZM6.93781 50.0914C6.93781 49.746 7.00921 49.4465 7.15201 49.1932C7.29941 48.9445 7.50438 48.751 7.76694 48.6128C8.0341 48.4746 8.34733 48.4055 8.70661 48.4055C9.24094 48.4055 9.66241 48.5575 9.97103 48.8616C10.2796 49.1656 10.434 49.5755 10.434 50.0914C10.434 50.3033 10.3971 50.5129 10.3234 50.7202C10.2497 50.9275 10.1484 51.0979 10.0194 51.2315L9.52883 51.0104C9.64859 50.8814 9.73611 50.7386 9.79139 50.582C9.85127 50.43 9.88121 50.2849 9.88121 50.1467C9.88121 49.8197 9.77757 49.5663 9.57029 49.3867C9.36761 49.2116 9.07742 49.1241 8.69971 49.1241C8.32199 49.1241 8.02489 49.2116 7.8084 49.3867C7.59651 49.5663 7.49056 49.8197 7.49056 50.1467C7.49056 50.2849 7.5182 50.43 7.57348 50.582C7.63336 50.7386 7.72318 50.8814 7.84294 51.0104L7.34547 51.2315C7.2211 51.0979 7.12206 50.9252 7.04836 50.7133C6.97466 50.506 6.93781 50.2987 6.93781 50.0914ZM7 51.8312L10.3718 51.8312L10.3718 52.5083L9.77066 52.5083C10.1714 52.6833 10.3948 53.0472 10.4409 53.6L10.4547 53.828L9.86048 53.8764L9.81902 53.4549C9.75914 52.8423 9.44361 52.5359 8.87244 52.5359L7 52.5359L7 51.8312ZM11.1525 54.3465L11.878 54.3465L11.878 55.1618L11.1525 55.1618L11.1525 54.3465ZM7 54.4087L10.3718 54.4087L10.3718 55.1065L7 55.1065L7 54.4087ZM7 56.1026L10.3718 56.1026L10.3718 56.7798L9.82593 56.7798C10.0194 56.8811 10.1691 57.0216 10.275 57.2012C10.381 57.3809 10.434 57.5905 10.434 57.83C10.434 58.3459 10.2083 58.6798 9.75684 58.8318C9.96873 58.9378 10.1346 59.0898 10.2543 59.2879C10.3741 59.4859 10.434 59.7116 10.434 59.965C10.434 60.7204 9.98255 61.0981 9.07972 61.0981L7 61.0981L7 60.4003L9.04517 60.4003C9.33076 60.4003 9.54035 60.3496 9.67393 60.2483C9.80751 60.1515 9.8743 59.9903 9.8743 59.7646C9.8743 59.5113 9.78448 59.3109 9.60483 59.1635C9.4298 59.0161 9.19027 58.9424 8.88626 58.9424L7 58.9424L7 58.2445L9.04517 58.2445C9.33076 58.2445 9.54035 58.1962 9.67393 58.0994C9.80751 58.0027 9.8743 57.8415 9.8743 57.6158C9.8743 57.3624 9.78448 57.1621 9.60483 57.0147C9.4298 56.8719 9.19027 56.8005 8.88626 56.8005L7 56.8005L7 56.1026ZM6.93781 63.656C6.93781 63.1033 7.09212 62.668 7.40074 62.3502C7.71397 62.0323 8.14005 61.8734 8.67898 61.8734C9.02445 61.8734 9.32846 61.9425 9.59101 62.0807C9.85818 62.2235 10.0655 62.4193 10.2129 62.668C10.3603 62.9167 10.434 63.2023 10.434 63.5248C10.434 63.99 10.2843 64.3562 9.98485 64.6234C9.69005 64.8905 9.2824 65.0241 8.76189 65.0241L8.52697 65.0241L8.52697 62.5505C7.82682 62.6012 7.47675 62.972 7.47675 63.6629C7.47675 63.8564 7.50669 64.0453 7.56657 64.2295C7.62645 64.4184 7.72548 64.5957 7.86367 64.7615L7.38001 64.9688C7.24183 64.8168 7.13358 64.621 7.05527 64.3815C6.97697 64.142 6.93781 63.9002 6.93781 63.656ZM9.94339 63.5524C9.94339 63.2622 9.85357 63.0319 9.67393 62.8615C9.49428 62.691 9.25476 62.5874 8.95535 62.5505L8.95535 64.4368C9.26858 64.423 9.5104 64.3401 9.68084 64.1881C9.85587 64.0361 9.94339 63.8242 9.94339 63.5524Z" fill="black"/>
</svg>
